<svg width="40" height="40" viewBox="0 0 40 40" fill="none" xmlns="http://www.w3.org/2000/svg">
<rect width="40" height="40" rx="8" fill="#FFCE2D"/>
<path d="M20 5.5C27.4099 5.5 33.5 11.7213 33.5 19.5C33.5 27.2787 27.4099 33.5 20 33.5C12.5901 33.5 6.5 27.2787 6.5 19.5C6.5 11.7213 12.5901 5.5 20 5.5Z" stroke="white" stroke-width="3"/>
<path d="M19 9C19 8.44772 19.4477 8 20 8V8C20.5523 8 21 8.44772 21 9V19C21 20.1046 20.1046 21 19 21V21V9Z" fill="white"/>
<path d="M10 21C9.44772 21 9 20.5523 9 20V20C9 19.4477 9.44772 19 10 19L21 19V19C21 20.1046 20.1046 21 19 21L10 21Z" fill="white"/>
</svg>
