<svg width="38" height="176" viewBox="0 0 38 176" fill="none" xmlns="http://www.w3.org/2000/svg">
<path d="M0.244141 9.15527C0.0813802 3.05176 2.92969 0 8.78906 0H28.3203C34.1797 0 37.028 3.05176 36.8652 9.15527L33.5693 115.845C33.4066 121.134 30.7617 123.779 25.6348 123.779H11.4746C6.34766 123.779 3.7028 121.134 3.54004 115.845L0.244141 9.15527ZM9.27734 175.049C3.58073 175.049 0.732422 171.997 0.732422 165.894V149.536C0.732422 143.433 3.58073 140.381 9.27734 140.381H27.832C33.5286 140.381 36.377 143.433 36.377 149.536V165.894C36.377 171.997 33.5286 175.049 27.832 175.049H9.27734Z" fill="#FED03E"/>
</svg>
